<?xml version="1.0" standalone="no"?>
<!DOCTYPE svg PUBLIC "-//W3C//DTD SVG 20010904//EN"
 "http://www.w3.org/TR/2001/REC-SVG-20010904/DTD/svg10.dtd">
<svg version="1.0" xmlns="http://www.w3.org/2000/svg"
 width="448.000000pt" height="448.000000pt" viewBox="0 0 448.000000 448.000000"
 preserveAspectRatio="xMidYMid meet">
<metadata>
Created by potrace 1.14, written by Peter Selinger 2001-2017
</metadata>
<g transform="translate(0.000000,448.000000) scale(0.100000,-0.100000)"
fill="#000000" stroke="none">
<path d="M2271 4283 c-6 -10 -11 -13 -11 -7 0 14 -30 14 -30 0 0 -6 -5 -4 -10
4 -5 8 -10 10 -10 4 0 -7 -20 -10 -52 -10 -29 1 -72 -1 -95 -4 -35 -6 -40 -4
-36 9 4 11 1 10 -9 -3 -10 -13 -22 -17 -36 -13 -12 3 -24 2 -27 -2 -4 -7 -35
-11 -107 -14 -16 0 -28 -4 -28 -7 0 -11 -35 -8 -42 4 -5 7 -8 4 -8 -7 0 -12
-7 -17 -17 -16 -10 1 -31 -3 -46 -10 -16 -6 -33 -9 -38 -5 -5 3 -9 1 -9 -4 0
-5 -6 -9 -12 -10 -34 -4 -55 -9 -82 -21 -24 -9 -31 -9 -38 1 -6 10 -8 9 -8 -2
0 -20 -87 -54 -94 -37 -2 7 -5 4 -5 -6 -1 -10 -5 -15 -11 -12 -5 3 -10 1 -10
-5 0 -6 -4 -8 -10 -5 -5 3 -10 2 -10 -2 0 -5 -10 -9 -22 -10 -11 -1 -25 -7
-29 -14 -4 -7 -14 -9 -24 -6 -9 4 -13 3 -10 -2 7 -13 -28 -23 -51 -15 -18 6
-18 5 1 -10 11 -9 16 -15 10 -14 -16 3 -125 -52 -125 -64 0 -6 -9 -8 -20 -5
-11 3 -18 1 -14 -4 8 -13 -10 -11 -26 4 -12 10 -12 9 0 -6 10 -14 10 -21 2
-29 -7 -7 -12 -9 -12 -4 0 4 -10 0 -21 -8 -12 -8 -29 -12 -38 -9 -13 4 -13 3
-2 -5 11 -8 9 -12 -10 -22 -13 -7 -32 -22 -42 -34 -10 -11 -15 -14 -11 -6 4 8
-3 5 -17 -7 -69 -64 -81 -73 -90 -67 -5 3 -8 0 -7 -8 2 -7 -3 -12 -10 -10 -8
1 -11 -2 -8 -7 8 -12 -48 -52 -60 -43 -5 4 -6 3 -2 -2 3 -5 4 -15 1 -22 -4
-12 -8 -12 -21 -2 -13 10 -14 10 -8 0 11 -18 -50 -92 -77 -93 -12 0 -16 -3 -9
-6 6 -2 12 -9 12 -15 0 -6 -7 -8 -15 -4 -8 3 -14 2 -13 -2 1 -4 -2 -15 -7 -25
-5 -13 -11 -15 -20 -7 -10 8 -15 8 -21 -1 -4 -8 -3 -9 4 -5 8 5 12 0 12 -13 0
-15 -4 -19 -17 -14 -11 4 -14 3 -9 -5 4 -6 -2 -19 -13 -29 -11 -9 -18 -20 -15
-25 3 -4 0 -8 -6 -8 -6 0 -8 -4 -5 -10 3 -5 -1 -10 -10 -10 -9 0 -14 -4 -11
-9 7 -10 -18 -34 -26 -25 -3 3 -5 -3 -4 -13 0 -10 -4 -17 -11 -16 -7 2 -10 -4
-7 -12 4 -8 1 -15 -7 -15 -7 0 -9 -3 -5 -7 3 -4 -4 -13 -16 -21 -13 -7 -15
-11 -6 -8 14 4 14 0 -4 -30 -15 -25 -24 -32 -31 -25 -6 6 -15 11 -21 11 -5 0
-1 -6 10 -14 19 -15 19 -15 -1 -31 -11 -9 -14 -13 -6 -10 9 6 9 1 -3 -17 -9
-14 -13 -28 -9 -33 5 -4 3 -5 -3 -2 -11 6 -28 -26 -25 -45 1 -5 -3 -8 -9 -8
-6 0 -9 -3 -9 -7 4 -26 -3 -43 -18 -43 -14 0 -15 -2 -4 -9 9 -6 10 -11 2 -15
-6 -4 -9 -12 -6 -17 4 -5 -1 -9 -9 -9 -9 0 -16 -5 -16 -11 0 -5 4 -8 9 -5 5 4
4 -5 -2 -18 -8 -16 -14 -21 -19 -13 -6 9 -8 9 -8 0 0 -6 4 -15 10 -18 6 -4 5
-16 -5 -34 -8 -16 -11 -31 -8 -35 4 -3 1 -6 -6 -6 -8 0 -11 -7 -7 -15 3 -8 -1
-20 -8 -27 -7 -8 -11 -23 -10 -35 2 -12 -3 -29 -12 -37 -9 -9 -11 -16 -4 -16
7 0 8 -6 1 -19 -6 -10 -7 -22 -3 -26 4 -5 -2 -5 -13 -1 -16 6 -18 5 -7 -5 6
-7 12 -17 12 -22 0 -4 -6 -5 -12 -1 -10 6 -10 4 0 -8 8 -10 9 -19 3 -22 -5 -3
-7 -16 -3 -28 3 -11 1 -19 -4 -16 -5 4 -8 -13 -7 -37 1 -37 -1 -43 -15 -39
-15 5 -15 4 1 -6 12 -8 15 -16 8 -28 -4 -9 -6 -23 -3 -31 3 -10 0 -11 -9 -5
-11 6 -12 5 -3 -7 15 -18 10 -69 -8 -80 -10 -6 -8 -9 7 -10 l20 0 -20 -9 c-17
-7 -17 -9 -3 -9 20 -1 14 -28 -11 -49 -14 -10 -14 -11 3 -6 16 6 18 2 15 -39
-2 -26 0 -49 6 -52 6 -3 5 -7 -3 -11 -6 -3 -9 -11 -5 -17 4 -7 8 -26 9 -44 1
-25 -2 -30 -15 -26 -9 3 -6 -2 7 -11 17 -14 20 -21 12 -36 -13 -24 -13 -40 0
-20 8 12 10 10 10 -10 0 -14 3 -35 6 -47 4 -14 2 -23 -5 -23 -7 0 -10 4 -6 9
3 5 1 12 -4 15 -5 4 -8 -1 -7 -10 1 -9 10 -20 19 -26 9 -5 17 -14 17 -19 0 -6
-6 -7 -12 -3 -7 4 -10 4 -6 -1 4 -4 2 -15 -5 -24 -10 -14 -10 -14 5 -3 14 11
17 10 23 -8 4 -12 4 -24 1 -27 -3 -4 -6 -1 -6 5 0 7 -6 12 -12 12 -8 -1 -5 -8
7 -18 11 -9 22 -28 24 -42 1 -14 7 -33 12 -42 6 -10 5 -19 -1 -23 -5 -3 -10
-12 -10 -18 0 -9 3 -8 8 1 6 9 11 6 19 -11 8 -18 8 -28 0 -36 -8 -8 -6 -11 8
-11 18 0 18 0 -1 -15 -10 -8 -13 -14 -6 -13 14 3 22 -8 40 -52 5 -14 20 -48
32 -76 12 -29 19 -57 15 -63 -3 -6 -3 -11 2 -10 20 3 27 -2 13 -11 -12 -8 -12
-10 5 -10 l20 -1 -20 -15 c-20 -16 -20 -16 3 -9 19 5 22 3 22 -20 0 -15 4 -24
10 -20 6 3 10 -3 10 -14 0 -12 5 -21 10 -21 6 0 10 -7 10 -16 0 -9 -5 -12 -12
-8 -7 4 -8 3 -4 -4 4 -6 13 -9 20 -6 15 6 31 -29 21 -45 -3 -5 0 -13 6 -17 8
-4 9 -3 5 4 -5 8 -2 10 9 6 12 -5 13 -9 4 -21 -10 -11 -10 -13 1 -11 7 2 19
-7 25 -19 7 -13 15 -20 20 -15 5 4 5 2 2 -4 -4 -7 0 -17 8 -24 8 -7 15 -19 15
-26 0 -8 7 -14 16 -14 8 0 12 -4 9 -10 -3 -5 -1 -10 4 -10 6 0 11 -10 11 -22
0 -12 3 -19 6 -15 10 10 36 -22 28 -34 -4 -7 -3 -9 4 -5 13 8 84 -73 75 -87
-3 -6 -2 -8 3 -4 5 3 18 -1 29 -9 10 -8 15 -14 10 -14 -5 0 1 -7 13 -16 12 -8
20 -20 17 -25 -6 -8 8 -13 28 -10 7 1 11 -15 8 -32 -1 -5 3 -6 8 -3 5 4 20 -4
33 -17 13 -13 31 -26 41 -30 9 -3 17 -14 17 -22 0 -9 4 -13 10 -10 5 3 10 1
10 -4 0 -6 7 -11 15 -11 7 0 18 -6 22 -13 4 -7 21 -21 36 -30 19 -12 27 -24
23 -34 -5 -13 -4 -13 8 -4 11 9 18 6 36 -16 12 -15 18 -22 14 -14 -4 9 -2 12
7 9 8 -3 13 -11 12 -17 -2 -6 5 -11 15 -11 22 -1 54 -25 45 -34 -4 -4 0 -4 9
-1 9 4 18 0 21 -9 4 -9 12 -16 19 -16 9 0 8 3 -2 10 -8 5 -10 10 -4 10 6 0 18
-7 25 -17 8 -9 42 -28 75 -44 34 -15 64 -33 66 -40 2 -7 12 -13 21 -15 9 -1
14 2 11 7 -3 5 11 0 30 -11 20 -11 39 -20 44 -20 19 0 72 -22 68 -28 -2 -4 8
-8 22 -9 44 -2 102 -25 95 -37 -3 -6 0 -6 7 1 15 14 55 -2 45 -18 -4 -5 -1 -9
4 -9 6 0 11 5 11 10 0 6 7 10 16 10 8 0 13 -4 10 -8 -3 -5 5 -8 17 -7 12 1 33
-2 46 -7 13 -5 42 -10 64 -13 22 -2 43 -9 47 -15 5 -8 10 -8 14 -2 4 6 20 7
47 1 22 -5 44 -7 49 -4 5 3 11 1 14 -3 3 -5 18 -7 32 -4 21 4 25 2 19 -9 -7
-11 -5 -11 10 1 10 8 19 15 20 15 1 0 10 -7 20 -15 11 -8 16 -10 13 -5 -4 6 4
10 20 9 17 -1 26 -7 24 -14 -2 -10 0 -11 10 -2 7 6 37 9 66 8 29 -2 52 1 52 7
0 5 8 3 17 -4 15 -12 16 -12 8 1 -7 11 -2 10 19 -4 16 -10 26 -13 22 -8 -3 6
-2 13 4 17 5 3 10 0 10 -7 0 -9 3 -9 10 2 9 13 11 13 20 0 7 -12 10 -12 10 -1
0 9 10 12 35 9 19 -2 35 -1 35 3 0 4 15 7 33 7 68 2 102 7 109 17 4 6 13 2 23
-10 14 -19 15 -19 8 -1 -5 15 -3 18 10 13 8 -3 17 -2 19 3 5 14 43 16 41 2 -2
-6 2 -12 8 -12 6 0 9 6 6 14 -7 18 57 38 74 22 9 -8 10 -8 4 3 -6 11 -4 13 8
8 9 -3 17 -2 19 3 2 5 12 11 23 13 11 2 28 7 37 12 10 4 29 8 42 9 13 0 22 5
18 10 -3 5 2 7 11 3 10 -3 17 -2 17 3 0 6 8 10 18 10 10 0 27 7 38 15 12 8 24
11 28 8 3 -3 6 -1 6 5 0 7 3 11 8 10 4 -1 29 8 55 20 26 11 53 20 60 18 7 -1
9 -1 4 1 -4 3 -4 9 -1 14 3 6 12 5 22 -3 9 -7 13 -8 9 -2 -4 7 0 17 8 24 8 7
15 9 15 4 0 -5 4 -3 9 4 4 7 18 14 29 15 12 1 22 6 22 12 0 14 39 37 50 30 6
-4 10 -2 10 2 0 5 18 19 40 33 22 14 40 28 40 32 0 5 7 8 15 8 8 0 15 6 15 13
0 7 3 8 8 2 4 -5 16 -11 27 -12 19 -1 19 -1 3 11 -23 17 -23 27 -1 19 10 -4
14 -2 10 4 -3 5 5 16 18 23 14 7 25 17 25 22 0 4 5 8 11 8 11 0 33 18 98 80
20 20 49 46 65 58 16 12 26 22 22 22 -4 0 19 26 51 57 31 31 51 53 43 49 -8
-5 -2 4 15 20 16 16 33 28 37 27 4 -2 5 3 2 10 -2 7 4 22 16 32 11 10 20 24
20 32 0 10 7 13 23 9 12 -3 16 -3 10 0 -14 6 -18 34 -5 34 4 0 14 -6 22 -12
12 -11 12 -10 1 4 -10 14 -9 22 10 47 12 17 25 29 28 27 3 -2 7 7 7 20 1 13
14 40 28 59 15 19 23 35 19 35 -4 0 -3 4 2 8 11 8 29 43 45 85 6 17 14 25 22
21 7 -4 8 -3 4 5 -9 15 3 53 15 46 5 -3 6 1 3 9 -3 9 -1 16 5 16 6 0 8 7 4 17
-4 9 -2 14 3 11 5 -4 10 5 11 19 0 14 5 28 10 32 4 3 9 17 11 31 2 14 13 34
25 44 17 15 18 18 5 13 -22 -8 -24 8 -3 17 8 3 15 11 15 18 0 9 -3 8 -10 -2
-5 -8 -10 -11 -10 -6 0 5 8 18 18 29 9 11 11 17 5 13 -19 -11 -15 5 5 20 11 9
13 13 4 14 -7 0 -10 5 -6 12 4 6 8 25 10 41 1 16 7 33 14 37 9 6 9 9 -1 13 -9
4 -10 6 -2 6 7 1 10 8 6 18 -4 11 -3 14 5 9 8 -5 10 -2 6 9 -4 8 0 23 7 32 8
10 9 14 2 10 -8 -5 -11 1 -8 20 2 16 4 28 5 28 1 0 2 16 3 35 1 20 8 38 17 42
12 5 11 7 -4 7 -20 1 -20 1 0 17 10 8 13 13 7 9 -7 -3 -13 0 -13 7 0 8 6 20
13 27 10 11 10 13 0 7 -16 -9 -17 10 -3 19 8 5 7 11 -1 21 -9 11 -8 18 2 31
10 11 10 14 2 9 -7 -4 -13 -3 -13 3 0 5 6 12 13 14 9 4 8 8 -3 16 -13 10 -13
11 0 11 9 0 11 3 5 8 -16 11 -17 34 -3 43 7 5 8 9 3 9 -15 0 -17 52 -3 62 9 5
7 8 -6 8 -20 0 -20 0 0 14 16 13 17 15 3 21 -9 3 -16 13 -16 21 0 9 6 13 16 9
13 -4 13 -2 -1 8 -10 8 -15 17 -11 20 3 4 0 7 -8 7 -11 0 -11 2 1 10 10 6 11
10 3 10 -7 0 -13 5 -13 11 0 5 4 8 8 5 5 -3 9 1 9 9 0 8 -5 11 -10 8 -6 -4 -8
0 -4 10 4 10 2 17 -5 17 -7 0 -6 5 2 15 10 12 9 16 -3 21 -9 3 -14 16 -13 35
1 16 -2 29 -8 29 -5 0 -2 6 9 13 14 11 15 16 5 22 -9 5 -11 4 -6 -3 4 -7 3
-12 -3 -12 -17 0 -25 42 -10 51 11 7 10 9 -5 9 -13 0 -17 5 -13 20 3 11 2 20
-2 20 -11 0 -34 97 -26 110 4 6 3 10 -2 9 -20 -3 -25 2 -13 16 11 13 10 14 -6
8 -16 -6 -17 -5 -6 9 10 13 10 18 1 24 -8 5 -9 3 -4 -6 6 -9 4 -11 -4 -6 -7 5
-10 14 -7 22 3 8 1 14 -4 14 -5 0 -7 9 -5 20 2 11 0 18 -6 15 -5 -4 -9 1 -9 9
0 9 -5 16 -11 16 -5 0 -8 4 -4 9 3 5 0 13 -6 17 -8 4 -7 9 2 15 11 7 10 9 -5
9 -13 0 -17 5 -13 20 3 11 0 18 -6 17 -6 -1 -13 7 -15 17 -2 11 -11 26 -19 34
-8 8 -12 21 -9 29 3 8 1 11 -4 8 -6 -3 -10 -1 -10 5 0 6 -5 16 -10 23 -19 22
-59 87 -55 87 3 0 -5 12 -18 26 -12 14 -20 26 -17 27 2 1 -7 13 -20 27 -14 14
-36 41 -50 60 -14 18 -33 40 -42 49 -9 8 -15 18 -12 23 3 4 0 8 -6 8 -6 0 -8
5 -4 12 4 6 3 8 -3 5 -14 -9 -76 60 -67 74 4 8 3 9 -5 5 -13 -8 -88 62 -83 77
1 5 -2 6 -8 2 -5 -3 -28 12 -50 35 -22 22 -40 37 -40 33 0 -4 -5 0 -11 10 -5
9 -16 17 -24 17 -8 0 -21 10 -29 22 -9 12 -16 18 -16 13 0 -6 -5 -2 -11 8 -5
9 -17 17 -24 17 -8 0 -15 5 -15 10 0 6 -7 10 -15 10 -8 0 -19 9 -25 20 -6 11
-15 18 -21 15 -12 -8 -40 20 -31 30 4 5 2 5 -5 1 -20 -11 -88 34 -75 50 4 5
-1 2 -10 -5 -12 -9 -18 -10 -18 -2 0 6 -8 11 -17 11 -10 0 -26 10 -38 23 -11
13 -16 17 -11 9 8 -11 5 -11 -18 -1 -17 8 -25 18 -21 27 4 11 2 12 -8 4 -10
-9 -17 -8 -25 0 -7 7 -12 9 -12 5 0 -4 -10 -2 -22 5 -13 7 -26 11 -30 10 -5
-1 -8 3 -8 10 0 6 -3 9 -6 5 -11 -11 -64 15 -64 31 0 14 -2 15 -9 3 -7 -12
-13 -12 -24 -3 -7 7 -17 9 -20 5 -4 -3 -7 -1 -7 5 0 6 -7 9 -15 6 -8 -4 -15
-1 -15 5 0 6 -7 8 -15 5 -18 -7 -20 7 -2 26 6 8 3 7 -9 -3 -22 -18 -44 -23
-44 -9 0 9 -17 12 -57 12 -13 0 -23 4 -23 8 0 5 -17 9 -37 10 -20 1 -40 7 -45
14 -4 7 -8 9 -8 4 0 -5 -8 -2 -17 5 -11 10 -14 10 -9 1 5 -8 1 -11 -13 -9 -11
2 -23 6 -27 9 -3 4 -13 4 -21 1 -8 -3 -19 0 -24 8 -6 10 -11 11 -20 2 -7 -7
-21 -8 -42 -2 -18 5 -49 9 -70 9 -28 0 -36 3 -31 13 5 7 1 7 -10 -2 -15 -13
-19 -13 -27 0 -6 10 -9 11 -9 1 0 -8 -10 -11 -27 -9 -16 3 -27 10 -25 16 3 17
-6 13 -17 -6z"/>
<path d="M1473 4165 c0 -8 4 -12 9 -9 5 3 6 10 3 15 -9 13 -12 11 -12 -6z"/>
<path d="M3095 4120 c3 -5 8 -10 11 -10 2 0 4 5 4 10 0 6 -5 10 -11 10 -5 0
-7 -4 -4 -10z"/>
<path d="M1130 3999 c0 -5 5 -7 10 -4 6 3 10 8 10 11 0 2 -4 4 -10 4 -5 0 -10
-5 -10 -11z"/>
<path d="M4276 2847 c3 -10 9 -15 12 -12 3 3 0 11 -7 18 -10 9 -11 8 -5 -6z"/>
<path d="M167 2739 c7 -7 15 -10 18 -7 3 3 -2 9 -12 12 -14 6 -15 5 -6 -5z"/>
<path d="M110 2439 c0 -5 5 -7 10 -4 6 3 10 8 10 11 0 2 -4 4 -10 4 -5 0 -10
-5 -10 -11z"/>
<path d="M4310 1801 c0 -6 4 -13 10 -16 6 -3 7 1 4 9 -7 18 -14 21 -14 7z"/>
<path d="M270 1436 c0 -2 8 -10 18 -17 15 -13 16 -12 3 4 -13 16 -21 21 -21
13z"/>
<path d="M673 835 c0 -8 4 -12 9 -9 5 3 6 10 3 15 -9 13 -12 11 -12 -6z"/>
<path d="M1430 337 c0 -2 6 -10 14 -16 11 -9 16 -9 22 1 4 7 4 10 -1 6 -4 -4
-14 -3 -22 3 -7 6 -13 9 -13 6z"/>
<path d="M1920 200 c-9 -6 -10 -10 -3 -10 6 0 15 5 18 10 8 12 4 12 -15 0z"/>
</g>
</svg>
